<svg xmlns="http://www.w3.org/2000/svg" xmlns:xlink="http://www.w3.org/1999/xlink" width="1887" height="219" viewBox="0 0 1887 219">
  <defs>
    <clipPath id="clip-Artboard_1">
      <rect width="1887" height="219"/>
    </clipPath>
  </defs>
  <g id="Artboard_1" data-name="Artboard – 1" clip-path="url(#clip-Artboard_1)">
    <rect width="1887" height="219" fill="#fff"/>
    <g id="Group_7" data-name="Group 7" transform="translate(58.316 17.825)">
      <g id="Group_5" data-name="Group 5" transform="translate(528.717 30.752)">
        <path id="Path_12" data-name="Path 12" d="M1102.029,164.973V72.932h12.308v83.881h27.693v8.16Z" transform="translate(-1102.029 -59.955)" fill="#4fb948"/>
        <path id="Path_13" data-name="Path 13" d="M1224.725,155.517q0,12.04,5.886,18.194t16.052,6.154a41.417,41.417,0,0,0,10.1-1.071,30.143,30.143,0,0,0,7.692-3.077l3.077,7.759a34.767,34.767,0,0,1-9.164,3.546,51.717,51.717,0,0,1-12.642,1.4q-14.715,0-23.41-9.432t-8.7-28.161q0-17.926,7.96-27.559t21.071-9.632q13.244,0,20.335,8.762t7.091,26.556Zm17.521-34.248a15.176,15.176,0,0,0-13.108,6.89q-4.817,6.888-4.814,21.064l34.509-5.259q0-11.88-4.214-17.287T1242.245,121.27Z" transform="translate(-1162.651 -82.072)" fill="#4fb948"/>
        <path id="Path_14" data-name="Path 14" d="M1392.175,188.427q-13.78,0-20.6-5.552t-6.823-15.719q0-13.245,10.568-19.131t29.7-7.893v-4.415q0-7.892-4.214-11.1T1389.1,121.4a31.822,31.822,0,0,0-9.1,1.271,51.016,51.016,0,0,0-8.295,3.278L1368.9,119a48.3,48.3,0,0,1,22.074-5.351q11.1,0,18.127,5.552t7.024,17.86v46.288a39.9,39.9,0,0,1-10.3,3.746A62.11,62.11,0,0,1,1392.175,188.427Zm12.844-42.274q-14.984,1.875-22.007,6.221t-7.023,14.515q0,7.494,4.414,11.1t12.71,3.612q7.491,0,11.907-2.408Z" transform="translate(-1244.752 -82.072)" fill="#4fb948"/>
        <path id="Path_15" data-name="Path 15" d="M1547.039,122.9a29.225,29.225,0,0,0-7.09-.8,17.789,17.789,0,0,0-9.365,2.27v62.881h-11.773V119.02a41.994,41.994,0,0,1,12.04-3.947,119.347,119.347,0,0,1,19-1.137Z" transform="translate(-1328.444 -82.23)" fill="#4fb948"/>
        <path id="Path_16" data-name="Path 16" d="M1653.656,187.09V135.317a15.152,15.152,0,0,0-3.344-10.034q-3.346-4.014-11.773-4.014a38.412,38.412,0,0,0-7.492.6,33.589,33.589,0,0,0-6.154,1.94V187.09H1613.12V118.728a47.865,47.865,0,0,1,11.505-3.813,75.874,75.874,0,0,1,14.85-1.271q13.777,0,19.866,6.221a20.9,20.9,0,0,1,6.087,15.184V187.09Z" transform="translate(-1379.677 -82.072)" fill="#4fb948"/>
        <path id="Path_17" data-name="Path 17" d="M1913.1,188.663l-10.27.027L1888.3,137.17a30.7,30.7,0,0,1-1.1-5.357q-.195-2.144-.324-3.083-.269,1.605-.6,3.413t-1.266,5.017l-14.919,51.485-10.1.019-20.469-72.108,12.095-.015,12.479,51.8a44.054,44.054,0,0,1,1.141,5.677q.2,1.938.337,2.872.408-2.138,1.02-4.482t1.022-4.08l14.582-51.773h10.167l14.181,51.773a49.669,49.669,0,0,1,.972,5.151,28.807,28.807,0,0,0,.584,3.411q.275-1.6.553-3.275t1.25-5.416l13.086-51.646,10.713,0Z" transform="translate(-1502.668 -83.646)" fill="#4fb948"/>
        <path id="Path_18" data-name="Path 18" d="M2082.256,70.677a6.973,6.973,0,0,1-4.95-1.873,5.987,5.987,0,0,1-2.007-4.548,6.142,6.142,0,0,1,2.007-4.683,6.983,6.983,0,0,1,4.95-1.873,6.814,6.814,0,0,1,4.816,1.873,6.143,6.143,0,0,1,2.006,4.683,5.988,5.988,0,0,1-2.006,4.548A6.8,6.8,0,0,1,2082.256,70.677ZM2076.37,156.7V84.591h11.772V156.7Z" transform="translate(-1630.755 -51.681)" fill="#4fb948"/>
        <path id="Path_19" data-name="Path 19" d="M2163.32,165.15q-9.1,0-13.512-5.274a19.4,19.4,0,0,1-4.415-12.882V99.865H2137.1V92.507h8.294V75.891l11.773-3.618V92.507h12.575v7.358h-12.575V146.6a11.989,11.989,0,0,0,2.208,7.525q2.208,2.862,6.89,2.862,1.069,0,3.478-.268v7.492q-1.474.351-2.943.644A18.109,18.109,0,0,1,2163.32,165.15Z" transform="translate(-1664.327 -59.597)" fill="#4fb948"/>
        <path id="Path_20" data-name="Path 20" d="M2281.027,149.539V98.33q0-6.434-3.277-10.322t-11.438-3.888a32.409,32.409,0,0,0-7.425.8,21.977,21.977,0,0,0-6.622,2.816v61.8h-11.773V44.521h11.773V81.177a35.856,35.856,0,0,1,16.588-4.549q12.574,0,18.262,6.167a21.512,21.512,0,0,1,5.686,15.144v51.6Z" transform="translate(-1720.494 -44.521)" fill="#4fb948"/>
        <path id="Path_21" data-name="Path 21" d="M2494.284,165.15q-9.1,0-13.512-5.274a19.4,19.4,0,0,1-4.415-12.882V99.865h-8.294V92.507h8.294V75.891l11.773-3.618V92.507h12.575v7.358H2488.13V146.6a11.989,11.989,0,0,0,2.208,7.525q2.208,2.862,6.89,2.862,1.069,0,3.478-.268v7.492q-1.474.351-2.943.644A18.11,18.11,0,0,1,2494.284,165.15Z" transform="translate(-1844.122 -59.597)" fill="#4fb948"/>
        <path id="Path_22" data-name="Path 22" d="M2611.99,149.539V98.33q0-6.434-3.278-10.322t-11.438-3.888a32.4,32.4,0,0,0-7.425.8,21.98,21.98,0,0,0-6.622,2.816v61.8h-11.772V44.521h11.772V81.177a35.857,35.857,0,0,1,16.589-4.549q12.573,0,18.261,6.167a21.512,21.512,0,0,1,5.686,15.144v51.6Z" transform="translate(-1900.289 -44.521)" fill="#4fb948"/>
        <path id="Path_23" data-name="Path 23" d="M2732.518,155.517q0,12.04,5.886,18.194t16.052,6.154a41.411,41.411,0,0,0,10.1-1.071,30.148,30.148,0,0,0,7.693-3.077l3.077,7.759a34.777,34.777,0,0,1-9.164,3.546,51.717,51.717,0,0,1-12.642,1.4q-14.715,0-23.409-9.432t-8.7-28.161q0-17.926,7.96-27.559t21.07-9.632q13.244,0,20.335,8.762t7.09,26.556Zm17.521-34.248a15.176,15.176,0,0,0-13.108,6.89q-4.817,6.888-4.814,21.064l34.509-5.259q0-11.88-4.215-17.287T2750.038,121.27Z" transform="translate(-1981.754 -82.072)" fill="#4fb948"/>
        <path id="Path_24" data-name="Path 24" d="M2966.24,155.517q0,12.04,5.886,18.194t16.052,6.154a41.418,41.418,0,0,0,10.1-1.071,30.13,30.13,0,0,0,7.692-3.077l3.077,7.759a34.761,34.761,0,0,1-9.164,3.546,51.719,51.719,0,0,1-12.642,1.4q-14.714,0-23.41-9.432t-8.7-28.161q0-17.926,7.96-27.559t21.071-9.632q13.244,0,20.334,8.762t7.091,26.556Zm17.521-34.248a15.176,15.176,0,0,0-13.108,6.89q-4.816,6.888-4.814,21.064l34.509-5.259q0-11.88-4.215-17.287T2983.76,121.27Z" transform="translate(-2108.722 -82.072)" fill="#4fb948"/>
        <path id="Path_25" data-name="Path 25" d="M3144.126,188.685l-15.5-29.189-16.059,29.166-12.166.006,22.34-37.323-19.932-34.785,12.329-.01,14,26.317,14.652-26.28,11.057-.027-20.067,33.846,22.341,38.261Z" transform="translate(-2187.64 -83.65)" fill="#4fb948"/>
        <path id="Path_26" data-name="Path 26" d="M3275.39,188.16a36.609,36.609,0,0,1-6-.535,35.045,35.045,0,0,1-5.2-1.2v29.432h-11.773V118.728a38.7,38.7,0,0,1,9.5-3.679,52.763,52.763,0,0,1,12.977-1.4q15.116,0,23.479,9.7t8.361,26.556q0,17.793-8.47,28.026T3275.39,188.16Zm-.944-67.426a25.993,25.993,0,0,0-5.6.535,28.441,28.441,0,0,0-4.661,1.472V179.33a22.739,22.739,0,0,0,8.792,1.605q10.786,0,16.382-7.96t5.6-22.542q0-14.448-4.8-22.074T3274.445,120.734Z" transform="translate(-2270.218 -82.072)" fill="#4fb948"/>
        <path id="Path_27" data-name="Path 27" d="M3411.722,155.517q0,12.04,5.886,18.194t16.052,6.154a41.415,41.415,0,0,0,10.1-1.071,30.146,30.146,0,0,0,7.693-3.077l3.076,7.759a34.764,34.764,0,0,1-9.164,3.546,51.726,51.726,0,0,1-12.643,1.4q-14.714,0-23.41-9.432t-8.7-28.161q0-17.926,7.96-27.559t21.071-9.632q13.244,0,20.334,8.762t7.09,26.556Zm17.521-34.248a15.175,15.175,0,0,0-13.108,6.89q-4.817,6.888-4.814,21.064l34.509-5.259q0-11.88-4.214-17.287T3429.243,121.27Z" transform="translate(-2350.729 -82.072)" fill="#4fb948"/>
        <path id="Path_28" data-name="Path 28" d="M3587.883,122.9a29.217,29.217,0,0,0-7.09-.8,17.792,17.792,0,0,0-9.365,2.27v62.881h-11.772V119.02a41.987,41.987,0,0,1,12.04-3.947,119.345,119.345,0,0,1,19-1.137Z" transform="translate(-2437.125 -82.23)" fill="#4fb948"/>
        <path id="Path_29" data-name="Path 29" d="M3670.814,165.15q-9.1,0-13.512-5.274a19.4,19.4,0,0,1-4.415-12.882V99.865h-8.294V92.507h8.294V75.891l11.773-3.618V92.507h12.575v7.358H3664.66V146.6a11.989,11.989,0,0,0,2.208,7.525q2.208,2.862,6.89,2.862,1.069,0,3.478-.268v7.492q-1.474.351-2.943.644A18.108,18.108,0,0,1,3670.814,165.15Z" transform="translate(-2483.267 -59.597)" fill="#4fb948"/>
      </g>
      <g id="Group_6" data-name="Group 6" transform="translate(46.684 19.175)">
        <path id="Path_30" data-name="Path 30" d="M592.271,100.435c7.319,2.161,14.36,2.268,21.613-.46.089,1.2.213,2.094.213,2.991q.015,37.047.005,74.094c0,3.128-.017,3.121-3.161,3.147-6.39.053-12.779.122-18.975-1.837-10.594-3.348-17.98-10.646-23.516-19.843C562.114,148,556.218,137.2,550.16,126.5c-5.864-10.356-11.676-20.741-17.567-31.081-.4-.7-1.274-1.138-1.927-1.7a9.385,9.385,0,0,0-.585,2.321q.314,33.01.7,66.018c.059,5.284.082,10.57.251,15.851.057,1.776-.533,2.344-2.282,2.319-5.68-.079-11.365-.132-17.042.022-2.328.063-2.891-.729-2.886-2.967q.1-46.516.045-93.032c0-4.577.126-9.158-.052-13.728-.091-2.357.757-2.917,2.974-2.883q11.479.177,22.961,0a3.977,3.977,0,0,1,4.073,2.36q19.991,35.819,40.184,71.525a96.885,96.885,0,0,0,7.242,10.207,10.27,10.27,0,0,0,3.005,2.621c1.713.989,2.87.231,3-1.759.042-.628.011-1.262.011-1.894V100.435Z" transform="translate(-297.732 -45.507)" fill="#0c51a1"/>
        <path id="Path_31" data-name="Path 31" d="M255.054,106.4c0-11.993.063-23.986-.056-35.978-.022-2.263.724-2.8,2.821-2.76q8.162.173,16.33,0c1.96-.039,2.539.585,2.533,2.556-.064,22.249-.133,44.5.04,66.747a63.264,63.264,0,0,0,1.753,13.054c1.782,8.039,7.243,12.4,15.119,14.075a45.931,45.931,0,0,0,17.618.3c10.565-1.858,16.183-7.693,17.643-18.4a95.68,95.68,0,0,0,.9-12.477c.088-20.908.039-41.816.042-62.724,0-3.08.008-3.088,3.135-3.092,5.365-.006,10.731.045,16.1-.026,1.751-.023,2.477.409,2.47,2.373-.079,23.59.057,47.182-.172,70.771a76.806,76.806,0,0,1-2.057,16.131c-2.289,10.08-9.847,15.6-18.607,19.7-6.51,3.045-13.543,4.084-20.647,4.522-10.521.648-20.956.191-31.084-3.121a40.953,40.953,0,0,1-15.965-9.831c-4.62-4.5-6.42-10.356-6.866-16.439-.7-9.5-.793-19.045-1.019-28.574C254.945,117.6,255.054,112,255.054,106.4Z" transform="translate(-159.85 -45.514)" fill="#0c51a1"/>
        <path id="Path_32" data-name="Path 32" d="M780.224,67.838c1.124-.066,1.877-.148,2.63-.149,6.786-.01,13.573.07,20.357-.052a4.244,4.244,0,0,1,4.144,2.344c6.617,10.553,13.34,21.04,20.033,31.546.544.855,1.123,1.688,1.915,2.874.634-.894,1.133-1.539,1.571-2.223,6.845-10.688,13.718-21.359,20.484-32.1a4.435,4.435,0,0,1,4.333-2.449c7.245.137,14.494.053,22.281.053-.613,1.082-.969,1.8-1.4,2.468Q860.2,95.2,843.784,120.218a3.027,3.027,0,0,0,.005,3.96q17.486,26.3,34.839,52.681c.6.9,1.159,1.823,1.962,3.09-1.109.107-1.847.238-2.585.24-6.944.016-13.888-.043-20.831.047a3.606,3.606,0,0,1-3.576-2.022q-10.622-17.9-21.373-35.714c-.522-.869-1.073-1.721-1.808-2.9-.675.979-1.219,1.713-1.705,2.484Q817.342,160.08,806.017,178.1a3.881,3.881,0,0,1-3.777,2.141c-6.942-.106-13.887-.039-20.831-.048-.7,0-1.392-.074-2.5-.138.62-.962,1.046-1.669,1.515-2.346q17.992-25.954,36.036-51.873a2.9,2.9,0,0,0,.006-3.918q-17.42-25.772-34.735-51.615C781.26,69.609,780.853,68.874,780.224,67.838Z" transform="translate(-444.46 -45.498)" fill="#0c51a1"/>
        <path id="Path_33" data-name="Path 33" d="M124.178,85.7c-8.778,0-17.218-.259-25.633.1a56.73,56.73,0,0,0-14.351,2.287c-9.526,2.971-14.206,10.187-15.387,19.846-.229,1.871-.135,3.78-.255,5.668-.092,1.439.528,1.944,1.938,1.92,3.312-.058,6.627-.011,9.94-.011,14.438,0,28.876.046,43.313-.046,2.277-.015,3.018.64,2.921,2.932-.173,4.1-.161,8.207,0,12.3.082,2.127-.671,2.674-2.7,2.666-17.278-.064-34.556-.037-51.834-.035-3.568,0-3.572,0-3.572,3.585,0,13.412-.052,26.825.047,40.236.017,2.366-.65,3.174-3.069,3.1-5.518-.162-11.044-.1-16.566-.023-1.751.026-2.289-.55-2.282-2.319.069-19.407-.118-38.818.166-58.222A139.746,139.746,0,0,1,48.9,98.559c2.494-14.77,11.808-23.5,25.824-27.735A82.646,82.646,0,0,1,97.82,67.716c7.889-.1,15.78.049,23.668-.067,2.213-.033,2.8.7,2.738,2.841C124.075,75.446,124.178,80.408,124.178,85.7Z" transform="translate(-46.684 -45.508)" fill="#0c51a1"/>
        <path id="Path_34" data-name="Path 34" d="M684.651,19.176c14.041.079,24.875,11.234,24.774,25.509a24.849,24.849,0,0,1-25.261,24.275c-14.049-.346-24.681-11.267-24.571-25.7C659.692,30.123,671.161,19.1,684.651,19.176Z" transform="translate(-379.643 -19.175)" fill="#f37125"/>
      </g>
    </g>
  </g>
</svg>
